<?xml version="1.0" standalone="no"?>
<!DOCTYPE svg PUBLIC "-//W3C//DTD SVG 20010904//EN"
 "http://www.w3.org/TR/2001/REC-SVG-20010904/DTD/svg10.dtd">
<svg version="1.0" xmlns="http://www.w3.org/2000/svg"
 width="1024.000000pt" height="1024.000000pt" viewBox="0 0 1024.000000 1024.000000"
 preserveAspectRatio="xMidYMid meet">
<metadata>
Created by potrace 1.16, written by Peter Selinger 2001-2019
</metadata>
<g transform="translate(0.000000,1024.000000) scale(0.100000,-0.100000)"
fill="#000000" stroke="none">
<path d="M5080 9070 c-568 -44 -1043 -177 -1569 -441 -428 -215 -720 -421
-1045 -739 -184 -180 -313 -328 -453 -520 -364 -498 -616 -1108 -708 -1709
-41 -267 -48 -388 -42 -688 7 -366 32 -553 117 -888 126 -500 348 -961 669
-1395 14 -19 78 -98 142 -175 381 -459 849 -819 1421 -1095 599 -288 1244
-420 1908 -389 590 28 1109 163 1630 424 456 228 809 482 1135 816 473 484
817 1072 995 1700 67 236 119 519 140 764 14 154 14 519 0 671 -62 681 -315
1366 -714 1929 -172 243 -450 551 -661 732 -412 354 -943 646 -1503 828 -232
75 -499 131 -767 160 -172 19 -540 27 -695 15z m842 -515 c542 -71 1251 -406
1788 -844 127 -103 411 -384 506 -501 60 -73 187 -243 206 -276 4 -5 -93 40
-215 101 -197 99 -345 164 -411 181 l-21 5 3 -908 c1 -499 4 -909 6 -911 2 -1
77 39 167 91 262 149 543 306 557 309 16 4 59 -90 46 -102 -5 -4 -169 -99
-364 -210 -195 -111 -368 -212 -383 -224 l-28 -21 1 -1310 c0 -1218 1 -1311
17 -1322 9 -7 46 -13 82 -13 l66 -1 -40 -37 c-465 -429 -1046 -770 -1600 -937
-123 -37 -275 -75 -275 -69 0 2 14 27 31 54 17 28 41 79 53 113 21 62 21 67
24 1315 l2 1252 -805 0 -806 0 4 -1237 c2 -1104 4 -1243 19 -1288 22 -69 45
-120 74 -166 29 -47 29 -46 -99 -14 -561 143 -1202 500 -1706 952 -13 11 -12
16 6 35 12 13 26 36 32 51 17 44 15 2631 -1 2645 -7 5 -146 87 -308 182 -343
200 -420 248 -420 264 0 6 9 22 20 36 11 14 20 31 20 38 0 6 3 12 6 12 8 0
113 -60 428 -243 131 -76 245 -141 252 -144 12 -4 14 142 14 902 l0 906 -22
-6 c-86 -26 -454 -205 -538 -261 -76 -52 -64 -32 109 186 140 176 398 436 583
586 405 330 927 611 1379 742 134 39 267 67 276 58 3 -2 -13 -35 -35 -73 -22
-37 -51 -97 -64 -133 l-23 -65 -3 -852 c-1 -469 0 -853 4 -853 13 0 171 100
228 145 43 33 59 62 106 182 57 150 169 240 331 267 l74 12 5 100 5 99 94 50
c154 82 212 154 219 276 3 52 -1 76 -18 118 -40 91 -144 161 -240 161 -98 0
-199 -61 -240 -145 -18 -38 -21 -55 -15 -122 6 -84 1 -99 -44 -122 -62 -34
-131 25 -131 112 0 231 169 416 397 434 66 5 93 2 150 -15 127 -39 238 -144
280 -265 25 -73 25 -224 -1 -292 -44 -117 -143 -217 -260 -265 l-56 -22 0 -54
c0 -53 1 -54 29 -54 41 0 142 -33 194 -63 83 -49 136 -127 192 -281 24 -66 79
-119 203 -194 l102 -61 0 812 c0 544 -4 833 -11 872 -29 158 -141 267 -321
315 -61 16 -67 19 -36 19 20 1 88 -6 150 -14z m-3418 -2047 c3 -50 6 -111 6
-136 0 -42 5 -51 69 -122 l70 -77 -43 -42 -43 -43 -58 71 c-58 70 -59 70 -74
48 -8 -12 -32 -43 -54 -70 l-39 -47 -37 31 c-20 18 -39 38 -44 45 -5 8 15 39
58 88 l65 74 0 136 0 136 59 0 58 0 7 -92z m5786 -28 l0 -70 63 -1 c34 -1 70
-1 80 0 14 2 17 -7 17 -58 l0 -61 -80 0 -80 0 0 -70 0 -70 -55 0 -55 0 0 70 0
70 -80 0 -80 0 0 60 0 60 80 0 c59 0 80 3 79 13 -1 6 -1 38 0 70 l1 57 55 0
55 0 0 -70z m-6247 -482 c21 -11 56 -82 57 -114 0 -11 -7 -45 -16 -75 -30 -99
-122 -169 -226 -169 -32 0 -36 2 -31 23 14 63 26 87 42 87 18 0 46 27 74 72
25 41 21 48 -26 48 -24 0 -46 2 -49 5 -3 3 3 36 14 73 l20 68 62 -4 c33 -2 69
-9 79 -14z m6761 -39 c21 -75 17 -89 -28 -89 -19 0 -37 -4 -40 -8 -10 -16 40
-87 71 -101 32 -14 49 -43 55 -91 3 -22 -1 -25 -29 -28 -121 -12 -236 104
-236 237 0 91 28 119 138 134 17 2 35 5 41 6 6 0 19 -26 28 -60z m-6886 -418
c50 -25 65 -45 101 -123 17 -38 52 -91 78 -119 l47 -51 -23 -44 c-13 -24 -28
-44 -33 -44 -5 0 -60 51 -124 113 -63 61 -131 120 -151 130 -35 19 -35 19 -29
70 13 99 14 100 58 93 22 -4 56 -15 76 -25z m6976 6 c3 -13 8 -48 12 -78 l6
-56 -33 -13 c-19 -8 -77 -55 -129 -104 -53 -50 -112 -105 -132 -122 l-37 -32
-27 45 -26 44 52 55 c30 32 65 84 85 127 40 87 64 111 136 137 70 25 86 25 93
-3z m-6579 -398 l75 -51 -15 -29 c-22 -41 -157 -200 -213 -249 -83 -74 -274
-191 -348 -214 -23 -7 -23 -4 -47 225 -3 24 2 28 37 39 144 43 336 185 401
298 11 17 23 32 27 32 5 0 42 -23 83 -51z m6149 -6 c73 -150 211 -319 368
-450 45 -37 76 -69 71 -70 -5 -2 -31 5 -56 16 l-47 20 -25 -47 c-49 -94 -45
-93 -124 -23 -95 84 -179 175 -269 292 -55 73 -80 98 -91 93 -9 -3 -24 -9 -33
-11 -10 -3 -18 -10 -18 -17 0 -6 24 -57 53 -113 74 -146 199 -320 321 -450 58
-61 106 -114 106 -117 0 -10 -109 72 -156 116 l-40 39 13 -83 c7 -46 17 -108
22 -138 5 -30 7 -56 6 -58 -4 -4 -137 176 -188 253 -21 33 -36 51 -32 40 4
-11 27 -81 52 -155 45 -139 46 -145 67 -459 l4 -64 -40 69 c-22 38 -74 134
-115 214 -71 135 -107 194 -89 145 4 -11 9 -155 12 -320 2 -175 0 -288 -5
-270 -5 17 -32 110 -60 209 -28 98 -51 185 -51 194 0 10 -3 12 -9 7 -6 -6 -13
-257 -17 -613 l-7 -604 -41 -48 -41 -49 -6 957 c-3 526 -3 1034 -1 1127 l5
170 194 115 c107 63 199 121 205 128 19 23 34 12 62 -45z m-5891 -144 l69 -41
-4 -60 -4 -59 -90 -90 c-108 -110 -256 -231 -384 -315 -97 -63 -279 -164 -297
-164 -9 0 -43 128 -43 163 0 12 26 29 85 56 227 105 431 283 542 474 25 42 48
77 51 77 3 0 37 -19 75 -41z m60 -467 c5 -110 5 -113 -21 -144 -63 -75 -612
-448 -658 -448 -13 0 -65 162 -56 172 4 3 57 34 117 69 234 132 444 286 555
405 30 33 56 60 57 59 1 0 4 -51 6 -113z m-49 -400 c-58 -69 -495 -502 -507
-502 -7 0 -77 141 -77 155 0 2 78 52 173 111 189 118 415 273 437 299 9 11 16
13 18 6 2 -7 -18 -37 -44 -69z m2446 -380 c0 -207 61 -337 186 -398 145 -71
314 -4 391 154 22 45 28 76 37 193 l10 139 73 0 73 0 0 -112 c0 -200 -44 -329
-145 -432 -135 -137 -337 -172 -512 -90 -113 54 -213 180 -248 315 -17 63 -31
255 -21 293 6 25 9 26 81 26 l75 0 0 -88z m-2409 21 c-5 -10 -98 -109 -207
-221 l-197 -203 -38 58 c-22 32 -39 60 -39 63 0 3 26 21 58 40 95 56 400 258
407 270 11 18 27 12 16 -7z m2085 -444 c28 -53 64 -100 129 -165 76 -77 105
-98 185 -137 126 -62 201 -80 325 -80 260 2 512 166 641 420 29 57 34 62 34
36 0 -53 -41 -196 -77 -268 -93 -188 -262 -324 -458 -371 -93 -21 -263 -14
-355 15 -203 64 -385 253 -445 460 -22 74 -46 249 -26 190 5 -15 26 -60 47
-100z m-2082 49 c-5 -7 -64 -70 -132 -140 l-125 -126 -23 28 c-13 15 -24 32
-24 38 0 5 55 45 123 88 67 43 135 88 150 101 32 26 42 29 31 11z m2326 -681
c139 -78 221 -100 375 -101 141 -1 187 8 320 66 97 42 186 104 278 191 42 41
77 72 77 69 0 -17 -100 -139 -154 -188 -73 -68 -204 -149 -279 -175 -50 -18
-51 -18 -17 -19 82 0 205 21 255 44 68 31 61 15 -20 -49 -150 -117 -285 -160
-473 -153 -139 6 -213 27 -322 92 -146 86 -249 214 -300 374 -17 51 -30 94
-30 95 0 2 46 -42 103 -97 73 -72 126 -115 187 -149z m-202 -220 c95 -97 240
-184 382 -229 64 -19 96 -23 215 -23 119 0 151 4 215 23 148 47 284 127 386
229 35 35 64 62 64 60 0 -3 -20 -31 -45 -63 -99 -127 -262 -244 -435 -312 -19
-7 -9 -9 40 -5 94 6 188 23 243 44 66 24 48 4 -59 -67 -141 -94 -246 -125
-417 -125 -149 0 -272 40 -408 132 -115 77 -212 219 -257 374 -21 69 -21 70
-1 45 11 -14 46 -51 77 -83z m142 -485 c142 -87 319 -142 460 -142 177 0 421
88 563 204 70 57 88 66 52 26 -105 -117 -252 -207 -415 -256 -64 -20 -70 -23
-39 -23 81 -2 248 22 312 43 37 12 67 21 67 20 0 -1 -30 -23 -68 -48 -104 -71
-192 -98 -338 -104 -182 -7 -336 31 -489 121 -121 71 -262 212 -314 314 -20
41 -19 40 52 -31 39 -39 110 -95 157 -124z"/>
<path d="M6520 6640 l0 -1390 -1190 0 -1190 0 0 1383 c0 1020 -3 1381 -11
1379 -11 -3 -411 -224 -457 -253 l-22 -14 0 -1587 c0 -1083 -3 -1588 -10
-1588 -6 0 -37 11 -70 25 -33 14 -62 25 -65 25 -3 0 -5 -433 -6 -962 0 -891
-5 -1078 -22 -1038 -4 8 -6 1139 -5 2513 2 1784 0 2497 -8 2497 -6 0 -55 -28
-110 -63 l-99 -63 -3 -2444 -2 -2445 122 -81 c171 -113 392 -244 593 -352 94
-51 173 -92 175 -92 3 0 4 564 2 1252 -1 689 0 1263 3 1276 l5 22 1185 0 1185
0 2 -1280 3 -1280 190 94 c203 100 347 184 540 312 66 43 123 82 128 85 4 3 8
1119 8 2479 l0 2474 -73 48 c-100 67 -371 236 -391 244 -16 6 -17 -79 -17
-1280 l0 -1286 -85 0 -85 0 0 1329 0 1330 -57 34 c-32 19 -82 47 -110 61 l-53
26 0 -1390z m390 -2305 c0 -168 -2 -305 -5 -305 -3 0 -32 11 -65 25 -33 14
-61 25 -63 25 -2 0 -1 -27 1 -61 3 -33 1 -436 -3 -895 -6 -698 -10 -834 -21
-834 -12 0 -14 183 -14 1175 l0 1175 85 0 85 0 0 -305z"/>
<path d="M4995 6490 c-187 -115 -368 -227 -402 -249 l-63 -41 0 -300 0 -300
805 0 805 0 0 303 0 303 -162 99 c-90 54 -228 138 -308 186 -80 49 -185 114
-235 146 -49 32 -92 59 -95 60 -3 1 -158 -92 -345 -207z m695 -458 l235 -80
-591 2 -591 1 91 33 c50 18 165 55 256 83 91 28 183 56 205 63 48 15 54 14
395 -102z"/>
</g>
</svg>
