<?xml version="1.0" encoding="iso-8859-1"?>
<!-- Uploaded to: SVG Repo, www.svgrepo.com, Generator: SVG Repo Mixer Tools -->
<svg fill="#000000" version="1.1" id="Layer_1" xmlns="http://www.w3.org/2000/svg" xmlns:xlink="http://www.w3.org/1999/xlink" 
	 viewBox="0 0 512 512" xml:space="preserve">
<g>
	<g>
		<path d="M428.56,328.14v-95.734c-6.593,2.393-13.688,3.688-21.086,3.688h-99.077v47.344h-36.571v12.267h-31.347v-12.267h-36.571
			v-47.344h-99.077c-7.398,0-14.493-1.296-21.086-3.688v95.788c0,0-48.065-9.356-48.065,46.121v63.74
			c0,17.825,11.487,32.274,25.655,32.274h22.41v-2.904c0,24.576,19.999,44.575,44.575,44.575h255.666
			c23.599,0,42.967-18.445,44.471-41.672h22.211c14.169,0,25.655-14.45,25.655-32.274v-63.74
			C476.322,321.418,432.624,327.464,428.56,328.14z M428.257,465.429H83.743v-31.347h344.513V465.429z"/>
	</g>
</g>
<g>
	<g>
		<path d="M313.621,55.205V32.131C313.621,14.413,299.208,0,281.49,0h-50.678c-17.717,0-32.131,14.413-32.131,32.131v23.074H74.005
			v118.718c0,8.84,3.741,16.833,9.738,22.455c5.517,5.193,12.925,8.37,21.086,8.37h302.644c8.161,0,15.569-3.176,21.086-8.37
			c5.998-5.622,9.738-13.615,9.738-22.455V55.205H313.621z M282.274,55.205h-52.245V32.131h0c0-0.433,0.352-0.784,0.784-0.784
			h50.678c0.432,0,0.784,0.351,0.784,0.784V55.205z"/>
	</g>
</g>
<g>
	<g>
		<rect x="235.259" y="236.878" width="41.796" height="15.214"/>
	</g>
</g>
</svg>